<?xml version="1.0" encoding="UTF-8" standalone="no"?>
<svg
   xmlns:dc="http://purl.org/dc/elements/1.1/"
   xmlns:cc="http://creativecommons.org/ns#"
   xmlns:rdf="http://www.w3.org/1999/02/22-rdf-syntax-ns#"
   xmlns:svg="http://www.w3.org/2000/svg"
   xmlns="http://www.w3.org/2000/svg"
   xmlns:xlink="http://www.w3.org/1999/xlink"
   id="svg2884"
   version="1.1"
   viewBox="0 0 16 16"
   height="16"
   width="16">
  <metadata
     id="metadata2890">
    <rdf:RDF>
      <cc:Work
         rdf:about="">
        <dc:format>image/svg+xml</dc:format>
        <dc:type
           rdf:resource="http://purl.org/dc/dcmitype/StillImage" />
        <dc:title></dc:title>
      </cc:Work>
    </rdf:RDF>
  </metadata>
  <path
     style="fill:#40b6e0;fill-opacity:0.60000002"
     id="path2878"
     d="M 8 1 C 4.134 1 1 4.134 1 8 C 1 11.866 4.134 15 8 15 L 8 8 L 15 8 C 15 4.134 11.866 1 8 1 z " />
  <path
     style="fill:#231f20;fill-opacity:0.69803923"
     id="path2880"
     d="M 8.0976562 5 C 6.3396562 5 5 6.358 5 8 C 5 9.6813216 6.3628817 10.998937 8 11 L 8 9.9921875 C 6.9940153 9.9662645 6 9.2380038 6 8 C 6 6.712 6.9706094 6 8.0996094 6 C 8.9479411 6 9.5487223 6.1851807 9.9003906 6.5546875 L 10.515625 5.8359375 C 9.8288249 5.2693817 9.2877253 5 8.0976562 5 z " />
  <defs
     id="defs2888">
    <linearGradient
       id="jexel-fuschia">
      <stop
         style="stop-color:#f500ff;stop-opacity:1"
         offset="0.01430186"
         id="stop6021" />
      <stop
         id="stop6023"
         offset="0.98482913"
         style="stop-color:#ff00a0;stop-opacity:1" />
    </linearGradient>
    <linearGradient
       id="jexel-blue"
       x1="-16.836%"
       x2="76.219%"
       y1="91.94%"
       y2="-1.116%">
      <stop
         style="stop-color:#00ffff;stop-opacity:1"
         offset="0.01584698"
         stop-color="#C757BC"
         id="stop5298" />
      <stop
         style="stop-color:#00a0a0;stop-opacity:1"
         offset="0.98031944"
         stop-color="#F88909"
         id="stop5308" />
    </linearGradient>
    <linearGradient
       gradientUnits="userSpaceOnUse"
       y2="8"
       x2="15.000001"
       y1="8"
       x1="0.99999952"
       id="linearGradient862"
       xlink:href="#jexel-blue" />
    <linearGradient
       gradientUnits="userSpaceOnUse"
       y2="8"
       x2="15.133389"
       y1="8"
       x1="1.0237316"
       id="linearGradient6019"
       xlink:href="#jexel-fuschia" />
  </defs>
  <g
     id="g906"
     transform="matrix(0.49999996,0,0,0.49999996,8.5000001,8.5000006)">
    <g
       id="g4688"
       style="fill:none;fill-rule:evenodd" />
    <g
       id="layer1">
      <path
         id="path5288"
         d="m 0.99999998,11 v 4.000001 H 4.9999997 L 15.000001,5.0000003 v -4 h -4 z"
         style="fill:url(#linearGradient862);fill-opacity:1;stroke:#000000;stroke-width:0;stroke-linecap:butt;stroke-linejoin:bevel;stroke-miterlimit:4;stroke-dasharray:none;stroke-opacity:1" />
      <path
         id="path864"
         d="M 1.0000001,5 V 0.99999998 h 4 L 15.000001,11 v 4 h -4 z"
         style="opacity:1;fill:url(#linearGradient6019);fill-opacity:1" />
    </g>
  </g>
</svg>
